<svg xmlns="http://www.w3.org/2000/svg" viewBox="0 0 14 14" class="design-iconfont">
  <path d="M6.83333333,12.6666667 C3.61158333,12.6666667 1,10.0550833 1,6.83333333 C1,3.61158333 3.61158333,1 6.83333333,1 C10.0550833,1 12.6666667,3.61158333 12.6666667,6.83333333 C12.6666667,10.0550833 10.0550833,12.6666667 6.83333333,12.6666667 Z M6.83333333,11.5 C9.41066217,11.5 11.5,9.41066217 11.5,6.83333333 C11.5,4.2560045 9.41066217,2.16666667 6.83333333,2.16666667 C4.2560045,2.16666667 2.16666667,4.2560045 2.16666667,6.83333333 C2.16666667,9.41066217 4.2560045,11.5 6.83333333,11.5 Z M9.68641667,4.80508333 L4.80508333,9.68641667 C4.48621883,9.45921192 4.20745475,9.18044783 3.98025,8.86158333 L8.86158333,3.98025 C9.18044783,4.20745475 9.45921192,4.48621883 9.68641667,4.80508333 Z" fill="#FFF" fill-rule="nonzero"/>
</svg>
